<svg xmlns="http://www.w3.org/2000/svg" viewBox="0 0 62.51 22.26" fill="current"><g id="Layer_2" data-name="Layer 2"><g id="Layer_1-2" data-name="Layer 1"><path class="cls-1" d="M2.6,18.13C.85,16.27,0,13.68,0,10.28s.9-6,2.7-7.68A10.19,10.19,0,0,1,10,0a10.06,10.06,0,0,1,7.29,2.6C19.11,4.29,20,6.89,20,10.34a11.13,11.13,0,0,1-2.09,7.15L20,22.26H12.09l-.35-1.51a7.78,7.78,0,0,1-1.22.11H9.89C6.73,20.86,4.29,19.93,2.6,18.13Zm10-7.71c0-3.26-.88-4.88-2.6-4.88s-2.6,1.64-2.6,4.9.85,4.91,2.55,4.93S12.62,13.68,12.62,10.42Z"/><path class="cls-1" d="M40.6.48V20.41H33.44l-5.3-8.09v8.09H22.05V.48H29.2l5.3,8.08V.48Z"/><path class="cls-1" d="M49.05,18l-.58,2.41H42.1L48.2.48h8.22l6.09,19.93H55.09L54.43,18ZM51.51,7.1,50.24,13H53Z"/></g></g></svg>